<svg width="48" height="48" viewBox="0 0 48 48" xmlns="http://www.w3.org/2000/svg">
<path d="M17.6 42.15L34.45 25.35C34.65 25.15 34.7913 24.9333 34.874 24.7C34.958 24.4667 35 24.2167 35 23.95C35 23.6833 34.958 23.4333 34.874 23.2C34.7913 22.9667 34.65 22.75 34.45 22.55L17.6 5.7C17.1333 5.23333 16.55 5 15.85 5C15.15 5 14.55 5.25 14.05 5.75C13.55 6.25 13.3 6.83333 13.3 7.5C13.3 8.16667 13.55 8.75 14.05 9.25L28.75 23.95L14.05 38.65C13.5833 39.1167 13.35 39.6913 13.35 40.374C13.35 41.058 13.6 41.65 14.1 42.15C14.6 42.65 15.1833 42.9 15.85 42.9C16.5167 42.9 17.1 42.65 17.6 42.15Z" />
</svg>
